<svg xmlns="http://www.w3.org/2000/svg" width="100" height="100"
     style="shape-rendering:geometricPrecision;text-rendering:geometricPrecision;image-rendering:optimizeQuality;fill-rule:evenodd;clip-rule:evenodd">
    <path style="opacity:.992" fill="#fefffe"
          d="M99.5 7.5v10H-.5v-10c.79-.283 1.456-.783 2-1.5 32-.667 64-.667 96 0 .544.717 1.21 1.217 2 1.5z"/>
    <path style="opacity:.976" fill="#fefffe"
          d="M-.5 21.5h100v72H-.5v-72zm57 9c1.844.704 2.344 2.037 1.5 4a1401.506 1401.506 0 0 0-16 39c-.67 2.767-1.836 3.267-3.5 1.5a2654.097 2654.097 0 0 1 18-44.5zm-27 12c1.855-.228 2.688.439 2.5 2a165.522 165.522 0 0 0-10.5 7 76.517 76.517 0 0 0 10 6.5c1.493 1.156 1.326 1.99-.5 2.5a64.394 64.394 0 0 1-14.5-9 142.026 142.026 0 0 1 13-9zm37 0a68.42 68.42 0 0 1 15.5 8c.667.667.667 1.333 0 2a145.32 145.32 0 0 1-14 8c-1.826-.51-1.993-1.344-.5-2.5a76.517 76.517 0 0 0 10-6.5 76.517 76.517 0 0 0-10-6.5c-.752-.67-1.086-1.504-1-2.5z"/>
</svg>