<svg xmlns="http://www.w3.org/2000/svg" width="100" height="100"
     style="shape-rendering:geometricPrecision;text-rendering:geometricPrecision;image-rendering:optimizeQuality;fill-rule:evenodd;clip-rule:evenodd">
    <path style="opacity:.948" fill="#fefffe"
          d="M45.5 3.5c5.894-.557 11.227.943 16 4.5l28 16a9.468 9.468 0 0 1 1.5 2.5 295.108 295.108 0 0 1-1 48A1202.746 1202.746 0 0 1 61.5 91c-7.148 5.48-14.482 5.813-22 1l-30-17A9.47 9.47 0 0 1 8 72.5a295.11 295.11 0 0 1 1-48c12.311-6.9 24.478-13.9 36.5-21zm-3 23c10.003-1.833 18.336 1 25 8.5a28.409 28.409 0 0 0-7.5 4.5 11.529 11.529 0 0 0-4.5-3.5C40.312 33.855 33.812 40.355 36 55.5c4.477 7.386 10.977 9.886 19.5 7.5a35.94 35.94 0 0 0 4.5-3.5 28.409 28.409 0 0 0 7.5 4.5c-9.028 9.285-19.361 10.951-31 5-10.664-9.091-12.83-19.924-6.5-32.5 3.49-4.338 7.656-7.671 12.5-10zm27 13h4v4h4v-4h4v4h4v4h-4v4h4v4h-4v4h-4v-4h-4v4h-4v-4h-4v-4h4v-4h-4v-4h4v-4z"/>
    <path style="opacity:1" fill="#fefffe" d="M73.5 47.5h4v4h-4v-4z"/>
</svg>