<svg xmlns="http://www.w3.org/2000/svg" width="100" height="100"
     style="shape-rendering:geometricPrecision;text-rendering:geometricPrecision;image-rendering:optimizeQuality;fill-rule:evenodd;clip-rule:evenodd">
    <path style="opacity:.962" fill="#fefffe"
          d="M35.5-.5h28c8.49 1.669 16.49 4.835 24 9.5 5.333 5.667 5.333 11.333 0 17-11.607 7.235-24.273 10.402-38 9.5-13.727.902-26.393-2.265-38-9.5-5.333-5.667-5.333-11.333 0-17 7.51-4.665 15.51-7.831 24-9.5z"/>
    <path style="opacity:.926" fill="#fefffe"
          d="M7.5 26.5c12.494 8.96 26.494 12.96 42 12 15.363 1.037 29.197-2.963 41.5-12 .667 5 .667 10 0 15a20.24 20.24 0 0 1-7.5 7.5c-15.415 6.175-31.416 8.175-48 6-10.152-.997-18.986-4.83-26.5-11.5-1.404-5.544-1.904-11.21-1.5-17z"/>
    <path style="opacity:.925" fill="#fefffe"
          d="M7.5 46.5c5.245 4.457 11.245 7.624 18 9.5 16 4.667 32 4.667 48 0 6.65-1.74 12.483-4.907 17.5-9.5.667 5 .667 10 0 15a20.24 20.24 0 0 1-7.5 7.5c-10.755 5.07-22.089 7.237-34 6.5-11.911.737-23.244-1.43-34-6.5A25.556 25.556 0 0 1 9 63.5c-1.404-5.544-1.904-11.21-1.5-17z"/>
    <path style="opacity:.924" fill="#fefffe"
          d="M7.5 66.5c5.064 4.758 11.064 7.924 18 9.5 20.028 4.844 39.694 3.511 59-4a25.556 25.556 0 0 0 6.5-5.5c.667 5 .667 10 0 15a20.24 20.24 0 0 1-7.5 7.5c-15.415 6.175-31.416 8.175-48 6-10.152-.997-18.986-4.83-26.5-11.5-1.404-5.544-1.904-11.21-1.5-17z"/>
</svg>