<svg xmlns="http://www.w3.org/2000/svg" width="80" height="80"
     style="shape-rendering:geometricPrecision;text-rendering:geometricPrecision;image-rendering:optimizeQuality;fill-rule:evenodd;clip-rule:evenodd">
    <path style="opacity:.951" fill="#fefffe"
          d="M79.5 26.5v5l-40 19-40-19v-5a547.908 547.908 0 0 1 40-19 547.908 547.908 0 0 1 40 19z"/>
    <path style="opacity:.852" fill="#fefffe"
          d="M79.5 65.5v7a36.068 36.068 0 0 0-4 7h-2c-2.469-3.273-4.136-6.94-5-11-.193-2.188.64-3.855 2.5-5 .168-8.02.668-16.02 1.5-24 1.35-1.45 3.016-2.117 5-2-.166 9.006 0 18.006.5 27 .383.556.883.89 1.5 1z"/>
    <path style="opacity:.911" fill="#fefffe"
          d="M15.5 43.5a161.146 161.146 0 0 0 24.5 11l3.5-.5A191.842 191.842 0 0 0 63 43.5c4.26 12.758.093 20.925-12.5 24.5-10.867 2.68-21.2 1.347-31-4a11.529 11.529 0 0 1-3.5-4.5c-.5-5.323-.666-10.656-.5-16z"/>
</svg>